HIERARCHY
ROOT root
{
	OFFSET 0.000000 0.000000 0.000000
	CHANNELS 6 Xposition Yposition Zposition Zrotation Yrotation Xrotation
	JOINT lhip
	{
		OFFSET 0.058581 -0.082280 -0.017664
		CHANNELS 3 Zrotation Yrotation Xrotation
		JOINT lknee
		{
			OFFSET 0.043451 -0.386469 0.008037
			CHANNELS 3 Zrotation Yrotation Xrotation
			JOINT lankle
			{
				OFFSET -0.014790 -0.426874 -0.037428
				CHANNELS 3 Zrotation Yrotation Xrotation
				JOINT ltoe
				{
					OFFSET 0.041054 -0.060286 0.122042
					CHANNELS 3 Zrotation Yrotation Xrotation
					End Site
					{
						OFFSET 0.000000 0.000000 0.000000
					}
				}
			}
		}
	}
	JOINT rhip
	{
		OFFSET -0.060310 -0.090513 -0.013543
		CHANNELS 3 Zrotation Yrotation Xrotation
		JOINT rknee
		{
			OFFSET -0.043257 -0.383688 -0.004843
			CHANNELS 3 Zrotation Yrotation Xrotation
			JOINT rankle
			{
				OFFSET 0.019056 -0.420046 -0.034562
				CHANNELS 3 Zrotation Yrotation Xrotation
				JOINT rtoe
				{
					OFFSET -0.034840 -0.062106 0.130323
					CHANNELS 3 Zrotation Yrotation Xrotation
					End Site
					{
						OFFSET 0.000000 0.000000 0.000000
					}
				}
			}
		}
	}
	JOINT lowerback
	{
		OFFSET 0.004439 0.124404 -0.038385
		CHANNELS 3 Zrotation Yrotation Xrotation
		JOINT upperback
		{
			OFFSET 0.004488 0.137956 0.026820
			CHANNELS 3 Zrotation Yrotation Xrotation
			JOINT chest
			{
				OFFSET -0.002265 0.056032 0.002855
				CHANNELS 3 Zrotation Yrotation Xrotation
				JOINT lowerneck
				{
					OFFSET -0.013390 0.211636 -0.033468
					CHANNELS 3 Zrotation Yrotation Xrotation
					JOINT upperneck
					{
						OFFSET 0.010113 0.088937 0.050410
						CHANNELS 3 Zrotation Yrotation Xrotation
						End Site
						{
							OFFSET 0.000000 0.000000 0.000000
						}
					}
				}
				JOINT lclavicle
				{
					OFFSET 0.071702 0.114000 -0.018898
					CHANNELS 3 Zrotation Yrotation Xrotation
					JOINT lshoulder
					{
						OFFSET 0.122921 0.045205 -0.019046
						CHANNELS 3 Zrotation Yrotation Xrotation
						JOINT lelbow
						{
							OFFSET 0.255332 -0.015649 -0.022946
							CHANNELS 3 Zrotation Yrotation Xrotation
							JOINT lwrist
							{
								OFFSET 0.265709 0.012698 -0.007375
								CHANNELS 3 Zrotation Yrotation Xrotation
								End Site
								{
									OFFSET 0.000000 0.000000 0.000000
								}
							}
						}
					}
				}
				JOINT rclavicle
				{
					OFFSET -0.082954 0.112472 -0.023707
					CHANNELS 3 Zrotation Yrotation Xrotation
					JOINT rshoulder
					{
						OFFSET -0.113228 0.046853 -0.008472
						CHANNELS 3 Zrotation Yrotation Xrotation
						JOINT relbow
						{
							OFFSET -0.260127 -0.014369 -0.031269
							CHANNELS 3 Zrotation Yrotation Xrotation
							JOINT rwrist
							{
								OFFSET -0.269108 0.006794 -0.006027
								CHANNELS 3 Zrotation Yrotation Xrotation
								End Site
								{
									OFFSET 0.000000 0.000000 0.000000
								}
							}
						}
					}
				}
			}
		}
	}
}
MOTION
Frames: 7
Frame Time: 0.033333
0.797253 0.815704 0.812505 -93.833039 -2.426059 79.141928 26.859281 5.112605 -28.072499 -8.186037 -4.854610 32.919287 -12.857018 2.681593 -4.483012 0.000000 -0.000000 0.000000 -29.878103 -0.802927 19.905409 1.201386 20.227812 40.251321 10.192701 2.403797 -32.700846 0.000000 -0.000000 0.000000 3.837359 6.162588 14.025333 2.955066 -4.158992 10.826011 -0.710063 1.711673 2.600274 2.938708 13.224707 7.436543 0.835202 8.566536 15.627935 -22.613886 5.647545 -0.125869 -44.775817 4.837893 -3.888158 4.188649 -31.747400 2.206633 0.406166 -4.734013 -13.351605 23.339224 -1.505031 0.650533 43.788705 0.423891 4.337357 -18.869358 54.475815 -10.719792 12.180490 3.617040 -3.689139 
0.786319 0.790332 0.806670 -92.412768 -1.987003 82.555460 26.833505 5.645717 -36.459695 -9.733319 -0.245889 40.815350 -12.321763 0.297521 -4.337977 0.000000 -0.000000 0.000000 -30.485801 -1.668264 17.809581 0.282153 19.542332 39.535737 11.372242 3.347378 -28.417409 0.000000 -0.000000 0.000000 1.479474 8.324273 15.099191 3.827620 -5.693815 11.052214 -0.014974 1.074712 1.976115 2.985955 13.714177 6.512010 1.640537 7.175858 13.185656 -21.285787 2.670369 1.069665 -43.378217 1.912032 -4.054464 4.146036 -32.571510 2.651996 2.512611 -5.428539 -13.168212 24.123553 -0.763739 1.833304 45.688361 1.947410 4.187656 -23.811089 55.334210 -14.932605 7.058176 4.768790 -4.809694 
0.773270 0.763306 0.806789 -92.194253 -1.040619 84.908609 26.257107 6.280392 -40.224392 -10.008766 1.167908 44.414478 -10.371991 -1.022175 -7.269203 0.000000 -0.000000 0.000000 -30.715759 -2.049177 16.682371 -0.663030 20.151185 37.113944 12.757376 4.272961 -22.074785 0.000000 -0.000000 0.000000 1.285840 9.919474 17.080831 3.978201 -5.709853 11.397174 0.068400 1.016142 1.202118 2.220417 12.406159 6.345326 3.086571 6.131182 11.398865 -19.517638 -1.394562 2.142116 -42.027298 -0.661793 -3.961808 4.168455 -34.007019 3.041427 3.389619 -5.617221 -12.850057 23.426219 1.134502 2.622357 48.871263 2.150358 4.083540 -28.504794 54.767863 -18.896274 7.620202 4.820062 -6.311224 
0.760022 0.735323 0.812021 -93.430869 0.358663 87.589390 26.294822 6.942715 -42.060108 -10.195473 2.578417 46.024190 -7.530359 -0.754711 -11.888530 0.000000 -0.000000 0.000000 -30.983581 -2.440864 13.936139 -1.140301 20.601670 34.776089 15.136167 5.365059 -13.898776 0.000000 -0.000000 0.000000 1.117841 11.163712 19.027067 4.120936 -4.981216 9.938366 0.564004 1.369146 0.977916 1.443398 11.735734 6.810538 3.969164 5.920732 10.361453 -18.452751 -4.010770 2.466130 -40.414641 -2.797843 -3.517134 3.572130 -35.319427 4.053807 3.860841 -6.798608 -12.537175 23.181714 2.690357 3.419011 49.286698 2.662844 4.624651 -29.523548 55.254139 -19.264927 8.630873 5.053158 -7.087542 
0.749118 0.710230 0.820477 -92.594407 1.950976 90.619322 26.084432 7.063719 -45.683211 -9.755320 4.233878 47.421034 -6.230737 -1.669041 -12.306836 0.000000 -0.000000 0.000000 -30.816378 -4.012759 12.275330 -1.785418 19.584697 31.224528 17.819787 6.099898 -3.614657 0.000000 -0.000000 0.000000 0.320966 11.689970 20.268011 4.741385 -5.698536 9.194029 1.767269 1.579033 0.758264 0.694536 10.962845 5.250653 4.857585 5.459551 9.336519 -17.010252 -5.750250 1.455573 -39.911308 -4.553679 -2.847823 4.040739 -37.659259 3.431757 3.323619 -7.152294 -12.081469 22.460955 4.429319 3.556963 49.165405 3.210794 5.771629 -32.110933 57.034640 -21.835083 11.707356 3.602105 -7.908054 
0.735686 0.685350 0.832409 -92.169143 3.371307 92.728910 25.517405 6.897378 -46.941559 -9.651873 4.871234 47.181558 -4.615319 -1.485343 -13.507729 0.000000 -0.000000 0.000000 -31.217026 -5.273444 11.314106 -2.110640 18.351198 27.105273 21.287446 6.051745 8.627059 0.000000 -0.000000 0.000000 0.072189 12.443816 21.565998 5.158032 -6.043931 8.972129 2.380954 1.511977 0.690806 0.758161 10.315970 4.072911 5.576698 4.688885 8.520237 -14.971539 -7.359936 1.410503 -39.565232 -6.999100 -2.839056 4.387915 -39.362317 2.893735 4.830628 -7.475108 -13.123871 21.260731 5.409851 3.239466 50.369176 4.560305 6.660815 -33.991701 57.598877 -23.804997 8.797600 4.242629 -8.859454 
0.722400 0.661441 0.848793 -92.132074 4.971905 94.707489 25.070549 6.694783 -47.199954 -9.278143 5.178783 46.006030 -3.163379 -1.270640 -14.227793 0.000000 -0.000000 0.000000 -30.682570 -6.000036 9.402712 -2.058512 17.181468 23.979802 23.277998 4.676366 20.512923 0.000000 -0.000000 0.000000 0.197182 12.765281 23.067219 5.482266 -5.735968 7.606703 2.808875 1.310214 0.674469 0.245288 9.247132 4.139365 6.165208 4.775709 8.318019 -13.924160 -8.864518 1.843566 -38.717640 -9.056500 -2.988609 5.374424 -40.385677 1.279923 5.456310 -7.936127 -13.608140 20.741742 5.881624 3.232942 51.405904 5.405343 7.421666 -36.409307 57.924942 -26.489110 9.284902 5.040246 -10.679929 
